<?xml version="1.0" encoding="UTF-8"?>
<svg width="20px" height="20px" viewBox="0 0 20 20" version="1.1" xmlns="http://www.w3.org/2000/svg" xmlns:xlink="http://www.w3.org/1999/xlink">
    <!-- Generator: Sketch 49.2 (51160) - http://www.bohemiancoding.com/sketch -->
    <title>homes 1024*1024 copy 4</title>
    <desc>Created with Sketch.</desc>
    <defs></defs>
    <g id="homes-1024*1024-copy-4" stroke="none" stroke-width="1" fill="none" fill-rule="evenodd">
        <circle id="Oval" fill="#881A51" cx="10" cy="10" r="10"></circle>
        <g id="Group" transform="translate(4.000000, 2.000000)">
            <g id="Rounded_Rectangle_1_copy" transform="translate(4.323203, 0.000000)" fill="#FFFFFF" fill-rule="nonzero">
                <path d="M7.19794428,1.41981531 L0.636204948,0.170986168 C0.2922782,0.170986168 0.0129873368,0.450277031 0.0129873368,0.795799727 L0.0129873368,14.3685377 C0.0129873368,14.7140604 0.2922782,14.9933513 0.636204948,14.9933513 L7.19794428,14.9933513 C7.54187103,14.9933513 7.82116189,14.7132624 7.82116189,14.3685377 L7.82116189,2.04462887 C7.82036392,1.69990415 7.54187103,1.41981531 7.19794428,1.41981531 Z" id="Shape"></path>
            </g>
            <g id="Shape_3_copy" transform="translate(0.000000, 6.050458)" fill="#FFFFFF">
                <path d="M8.50959361,3.86857744 L7.57516618,2.92776622 C7.58474187,2.89345334 7.5959135,2.85993844 7.5959135,2.82323164 L7.5959135,1.28234405 C7.5959135,1.0636992 7.41956127,0.886548997 7.2017144,0.886548997 C6.98386752,0.886548997 6.80671732,1.0636992 6.80671732,1.28234405 L6.80671732,2.15452951 L4.88679213,0.221836743 C4.63942022,-0.0271311124 4.2396353,-0.0271311124 3.99226339,0.221836743 L0.369461913,3.86857744 C0.188321839,4.05131346 0.134857588,4.32501851 0.232210403,4.56281473 C0.329563218,4.80061095 0.560975648,4.95541788 0.816327294,4.95541788 L1.30708124,4.95541788 L1.30708124,8.19918177 C1.30708124,8.65402688 1.67335126,9.02269082 2.12500448,9.02269082 L6.75245509,9.02269082 C7.20410832,9.02269082 7.57037834,8.65402688 7.57037834,8.19918177 L7.57037834,4.95541788 L8.06113228,4.95541788 C8.3172819,4.95541788 8.54789636,4.80061095 8.64524917,4.56281473 C8.74260199,4.32501851 8.69073368,4.05051549 8.50959361,3.86857744 Z" id="Shape"></path>
            </g>
            <g id="Shape_2_copy_3" transform="translate(2.727255, 10.706994)" fill="#881A51">
                <path d="M1.89939762,2.32094759 C1.89939762,1.85333489 1.7166616,1.71129554 1.7166616,1.71129554 L1.7166616,0.614879408 C1.7166616,0.614879408 1.65601559,0.00602532632 0.987313462,0.00602532632 C0.319409312,0.00602532632 0.258763296,0.614879408 0.258763296,0.614879408 L0.258763296,1.71129554 C0.258763296,1.71129554 0.0760272745,1.91477888 0.0760272745,2.32094759 C0.0760272745,2.71115683 0.381651276,3.12929515 0.925869472,3.16201208 L0.925869472,4.81780791 L1.10860549,4.65821313 L1.10860549,3.15323437 C1.612925,3.10056809 1.89939762,2.76063121 1.89939762,2.32094759 Z" id="Shape"></path>
            </g>
            <g id="Rounded_Rectangle_3_copy_5" transform="translate(9.575687, 3.191896)" fill="#881A51" fill-rule="nonzero">
                <path d="M1.23925346,0.0600677966 L0.491551919,0.0600677966 C0.376643678,0.0600677966 0.284078706,0.153430742 0.284078706,0.268338983 L0.284078706,1.01763647 C0.284078706,1.13254471 0.376643678,1.22590766 0.491551919,1.22590766 L1.23925346,1.22590766 C1.3541617,1.22590766 1.44672667,1.13254471 1.44672667,1.01763647 L1.44672667,0.268338983 C1.44672667,0.153430742 1.3541617,0.0600677966 1.23925346,0.0600677966 Z" id="Shape"></path>
            </g>
            <g id="Rounded_Rectangle_3_copy_5_1_" transform="translate(9.575687, 7.646406)" fill="#881A51" fill-rule="nonzero">
                <path d="M1.23925346,0.22742256 L0.491551919,0.22742256 C0.376643678,0.22742256 0.284078706,0.319987532 0.284078706,0.435693746 L0.284078706,1.18419326 C0.284078706,1.29989947 0.376643678,1.39326242 0.491551919,1.39326242 L1.23925346,1.39326242 C1.3541617,1.39326242 1.44672667,1.29989947 1.44672667,1.18419326 L1.44672667,0.435693746 C1.44672667,0.319987532 1.3541617,0.22742256 1.23925346,0.22742256 Z" id="Shape"></path>
            </g>
            <g id="Rounded_Rectangle_3_copy_5_2_" transform="translate(9.575687, 6.050458)" fill="#881A51" fill-rule="nonzero">
                <path d="M1.23925346,0.282482759 L0.491551919,0.282482759 C0.376643678,0.282482759 0.284078706,0.375845704 0.284078706,0.490753945 L0.284078706,1.24005143 C0.284078706,1.35495967 0.376643678,1.44832262 0.491551919,1.44832262 L1.23925346,1.44832262 C1.3541617,1.44832262 1.44672667,1.35495967 1.44672667,1.24005143 L1.44672667,0.490753945 C1.44672667,0.375845704 1.3541617,0.282482759 1.23925346,0.282482759 Z" id="Shape"></path>
            </g>
            <g id="Rounded_Rectangle_3_copy_5_3_" transform="translate(5.585817, 1.595948)" fill="#881A51" fill-rule="nonzero">
                <path d="M0.992679525,0.115925969 L0.244977986,0.115925969 C0.130069745,0.115925969 0.037504773,0.209288915 0.037504773,0.324197156 L0.037504773,1.07349464 C0.037504773,1.18840288 0.130867719,1.28176583 0.244977986,1.28176583 L0.992679525,1.28176583 C1.10758777,1.28176583 1.20015274,1.18840288 1.20015274,1.07349464 L1.20015274,0.324197156 C1.20015274,0.209288915 1.10758777,0.115925969 0.992679525,0.115925969 Z" id="Shape"></path>
            </g>
        </g>
    </g>
</svg>